{"title":"Greatest.Battles.Of.The.Civil.War.2009.Part.7.DVDRip.XviD-SPRiNT","uid":5304996,"size":741928267,"categoryP":"video","categoryS":"movies","magnet":"?xt=urn:btih:0914b82c40aa6c14cf8c8fb226f137d18d350a08&amp;dn=Greatest.Battles.Of.The.Civil.War.2009.Part.7.DVDRip.XviD-SPRiNT&amp;tr=udp%3A%2F%2Ftracker.openbittorrent.com%3A80&amp;tr=udp%3A%2F%2Fopen.demonii.com%3A1337&amp;tr=udp%3A%2F%2Ftracker.coppersurfer.tk%3A6969&amp;tr=udp%3A%2F%2Fexodus.desync.com%3A6969","seeders":1,"leechers":0,"uploader":"TvTeam","files":54,"time":1264359247,"description":". \n\nTorrentDay - Your Gateway To The Scene.\n\nwe are the most on-time tracker around the globe, You can download releases whenever they release out by group uploaders. no Wait Time.\n\nTorrentDay is a private tracker torrent website, which is totally free, safe and fast.\n\n\nHigher Speed Download is available at: TorrentDay - Your Gateway To The Scene.\n\n\n.\n\nTorrentday : Clean RAR Scene File - Enjoy and don't forget to leave Thanks\n\n\nEnjoy :)\n\n...................................NFO:....................................\n\n.SPRiNTER proudly presents...\n\n\n\nGreatest.Battles.Of.The.Civil.War.2009.Part.7.DVDRip.XviD-SPRiNTER &lt;a href=&quot;\nhttp://www.amazon.ca/Civil-War-Greatest-Battles/dp/B002MXN24Y&quot; rel=&quot;nofollow&quot; target=&quot;_NEW&quot;&gt;\nhttp://www.amazon.ca/Civil-War-Greatest-Battles/dp/B002MXN24Y&lt;/a&gt;\nSubtitles: English\n\nDate: 2010.01\n\nDirector: Joel Schumacher\nGenre: Documentary\nPlot: Gods And Generals. Victories And Defeats. The True Stories Behind The Greatest Battles. Antietam. Shiloh. Chickamauga. Gettysburg. These were the fields of combat where the armies of North and South fought their most ferocious battles. They remain the legendary clashes that shaped the conflict and changed our nation forever. Discover the stories behind The Greatest Battles Of The Civil War, from the commanders' remarkable strategies to the staggering human costs of those who fought and died for their ideals. Their legacies come alive in these eight documentaries from the award-winning producers of The Civil War Journals, featuring rare photographs, stunning reenactments and revealing interviews with leading Civil War historians. \n\n\nRelease notes:\n\nEpisode name: The Petersburg Campaign\n\nEnjoy!\n\nFormat                           : AVI\nFormat/Info                      : Audio Video Interleave\nFile size                        : 701 MiB\nDuration                         : 50mn 12s\nOverall bit rate                 : 1 950 Kbps\nWriting application              : VirtualDubMod 1.5.10.2 (build 2540/release)\nWriting library                  : VirtualDubMod build 2540/release\n\nVideo\nID                               : 0\nFormat                           : MPEG-4 Visual\nFormat profile                   : AdvancedSimple@L5\nFormat settings, BVOP            : Yes\nFormat settings, QPel            : No\nFormat settings, GMC             : No warppoints\nFormat settings, Matrix          : Default (H.263)\nCodec ID                         : XVID\nCodec ID/Hint                    : XviD\nDuration                         : 50mn 12s\nBit rate                         : 1 792 Kbps\nWidth                            : 608 pixels\nHeight                           : 448 pixels\nDisplay aspect ratio             : 4:3\nFrame rate                       : 29.970 fps\nResolution                       : 24 bits\nColorimetry                      : 4:2:0\nScan type                        : Progressive\nBits/(Pixel*Frame)               : 0.220\nStream size                      : 644 MiB (92%)\nWriting library                  : XviD 1.2.1 (UTC 2008-12-04)\n\nAudio\nID                               : 1\nFormat                           : MPEG Audio\nFormat version                   : Version 1\nFormat profile                   : Layer 3\nCodec ID                         : 55\nCodec ID/Hint                    : MP3\nDuration                         : 50mn 12s\nBit rate mode                    : Variable\nBit rate                         : 144 Kbps\nChannel(s)                       : 2 channels\nSampling rate                    : 48.0 KHz\nResolution                       : 16 bits\nStream size                      : 51.8 MiB (7%)\nAlignment                        : Aligned on interleaves\nInterleave, duration             : 24 ms (0.72 video frame)\nInterleave, preload duration     : 447 ms\nWriting library                  : LAME3.89 (alpha)","torrent":{"xt":"urn:btih:0914b82c40aa6c14cf8c8fb226f137d18d350a08","amp;dn":"Greatest.Battles.Of.The.Civil.War.2009.Part.7.DVDRip.XviD-SPRiNT","amp;tr":["udp%3A%2F%2Ftracker.openbittorrent.com%3A80","udp%3A%2F%2Fopen.demonii.com%3A1337","udp%3A%2F%2Ftracker.coppersurfer.tk%3A6969","udp%3A%2F%2Fexodus.desync.com%3A6969"],"infoHash":"0914b82c40aa6c14cf8c8fb226f137d18d350a08","infoHashBuffer":{"type":"Buffer","data":[9,20,184,44,64,170,108,20,207,140,143,178,38,241,55,209,141,53,10,8]},"announce":[],"urlList":[]}}